<?xml version="1.0" encoding="UTF-8"?>
<svg xmlns="http://www.w3.org/2000/svg" width="600" height="400" viewBox="0 0 600 400" role="img" aria-label="Canh 7 - Hinh B">
  <defs>
    <linearGradient id="sky7" x1="0" y1="0" x2="0" y2="1">
      <stop offset="0" stop-color="#bfdbfe"/>
      <stop offset="1" stop-color="#dbeafe"/>
    </linearGradient>
  </defs>
  <rect x="0" y="0" width="600" height="400" fill="url(#sky7)"/>
  <!-- Sun DIFF: orange -->
  <circle cx="520" cy="80" r="50" fill="#f97316" stroke="#ea580c" stroke-width="4"/>
  <!-- Cloud DIFF: darker -->
  <g fill="#e2e8f0" opacity="0.95">
    <circle cx="120" cy="90" r="30"/>
    <circle cx="160" cy="80" r="38"/>
    <circle cx="210" cy="90" r="28"/>
    <rect x="105" y="85" width="120" height="25" rx="12"/>
  </g>
  <!-- Balloon DIFF: blue -->
  <g transform="translate(300 200)">
    <path d="M 0 -60 Q -45 20 -40 50 Q 0 30 40 50 Q 45 20 0 -60 Z" fill="#3b82f6" stroke="#2563eb" stroke-width="3"/>
    <path d="M -25 50 L -15 95 L 0 85 L 15 95 L 25 50" fill="none" stroke="#57534e" stroke-width="4"/>
    <rect x="-30" y="95" width="60" height="25" rx="4" fill="#78716c"/>
  </g>
  <!-- Plane DIFF: yellow -->
  <g transform="translate(450 140)">
    <path d="M -50 0 L 40 -8 L 40 8 Z" fill="#fde047" stroke="#f59e0b" stroke-width="2"/>
    <rect x="-20" y="-5" width="50" height="10" rx="2" fill="#fde047"/>
  </g>
</svg>
