<?xml version="1.0" encoding="UTF-8"?>
<svg xmlns="http://www.w3.org/2000/svg" width="600" height="400" viewBox="0 0 600 400" role="img" aria-label="Canh 6 - Hinh B">
  <defs>
    <linearGradient id="sea6" x1="0" y1="0" x2="0" y2="1">
      <stop offset="0" stop-color="#0ea5e9"/>
      <stop offset="1" stop-color="#0369a1"/>
    </linearGradient>
  </defs>
  <rect x="0" y="0" width="600" height="400" fill="url(#sea6)"/>
  <!-- Fish DIFF: blue -->
  <g transform="translate(180 160)">
    <ellipse cx="0" cy="0" rx="45" ry="22" fill="#3b82f6"/>
    <path d="M 45 0 L 65 -25 L 65 25 Z" fill="#3b82f6"/>
    <circle cx="-25" cy="-5" r="6" fill="#fff"/>
  </g>
  <!-- Starfish DIFF: pink -->
  <g transform="translate(420 280)">
    <path d="M 0 -25 L 8 5 L 25 5 L 12 22 L 18 45 L 0 32 L -18 45 L -12 22 L -25 5 L -8 5 Z" fill="#ec4899" stroke="#be185d" stroke-width="2"/>
  </g>
  <!-- Bubble DIFF: two small -->
  <circle cx="310" cy="115" r="12" fill="none" stroke="#e0f2fe" stroke-width="3" opacity="0.9"/>
  <circle cx="335" cy="125" r="10" fill="none" stroke="#e0f2fe" stroke-width="3" opacity="0.9"/>
  <!-- Seaweed -->
  <path d="M 520 400 Q 500 280 530 180 Q 510 220 520 400" fill="#22c55e" opacity="0.8"/>
  <path d="M 80 400 Q 100 300 70 200" fill="#16a34a" opacity="0.8"/>
</svg>
